<svg id="Layer_1" data-name="Layer 1" xmlns="http://www.w3.org/2000/svg" viewBox="0 0 100 100"><title>Home</title><path d="M88.79,50.65A1.84,1.84,0,0,1,88.93,53L85.51,57.2a1.27,1.27,0,0,1-1.09.55,2,2,0,0,1-1.23-.41L51.09,31A1.81,1.81,0,0,0,50,30.57a1.83,1.83,0,0,0-1.09.41L16.81,57.34a2,2,0,0,1-1.23.41,1.28,1.28,0,0,1-1.09-.55L11.08,53a1.7,1.7,0,0,1-.35-1.23,1.75,1.75,0,0,1,.48-1.09L45.9,22.1A6.18,6.18,0,0,1,50,20.6a6.72,6.72,0,0,1,4.24,1.5L66.39,32.21v-10a1.57,1.57,0,0,1,.48-1.16A1.59,1.59,0,0,1,68,20.6h7.65a1.59,1.59,0,0,1,1.16.48,1.57,1.57,0,0,1,.48,1.16v19ZM77.32,59a1.85,1.85,0,0,0-.55-1.37l-25.68-21A1.81,1.81,0,0,0,50,36.17a1.83,1.83,0,0,0-1.09.41l-25.68,21A1.88,1.88,0,0,0,22.69,59V78.51A3.26,3.26,0,0,0,26,81.79H41.81a1.64,1.64,0,0,0,1.64-1.64V64.85a1.62,1.62,0,0,1,.47-1.16,1.59,1.59,0,0,1,1.16-.48h9.84a1.64,1.64,0,0,1,1.64,1.64v15.3A1.59,1.59,0,0,0,57,81.31a1.55,1.55,0,0,0,1.16.48H74a3.28,3.28,0,0,0,3.28-3.28Z"/></svg>
