<svg id="Layer_1" data-name="Layer 1" xmlns="http://www.w3.org/2000/svg" viewBox="0 0 100 100"><title>Settings</title><path d="M62.51,57a2.64,2.64,0,0,1,1.37,1.56,2.55,2.55,0,0,1-.12,2.06c-.75,2.17-2.5,4.91-5.25,8.25a3.26,3.26,0,0,1-1.81.93,2.81,2.81,0,0,1-1.94-.31l-3.62-2.12a22.62,22.62,0,0,1-6.87,4v4.25a2.85,2.85,0,0,1-.75,1.88,2.75,2.75,0,0,1-1.75,1,26.15,26.15,0,0,1-9.5,0,2.61,2.61,0,0,1-1.81-1,3,3,0,0,1-.68-1.88V71.33a20.81,20.81,0,0,1-6.88-4l-3.62,2.12a3.23,3.23,0,0,1-2.06.31,2.71,2.71,0,0,1-1.69-.93,31.15,31.15,0,0,1-5.24-8.25,2.51,2.51,0,0,1-.13-2.06A2.68,2.68,0,0,1,11.53,57l4.13-2.13a20.83,20.83,0,0,1,0-7.87l-4.13-2.12a3.27,3.27,0,0,1-1.37-1.63,2.39,2.39,0,0,1,.13-2A31.12,31.12,0,0,1,15.53,33a2.51,2.51,0,0,1,1.69-1.06,2.85,2.85,0,0,1,2.06.43l3.62,2a20.9,20.9,0,0,1,6.88-3.87V26.23a2.91,2.91,0,0,1,.68-1.94,2.65,2.65,0,0,1,1.81-.93,28.07,28.07,0,0,1,9.5-.13,3.52,3.52,0,0,1,1.75,1.06,2.78,2.78,0,0,1,.75,1.94v4.25a24.52,24.52,0,0,1,6.87,3.87l3.62-2a2.48,2.48,0,0,1,1.94-.43A3,3,0,0,1,58.51,33a28.51,28.51,0,0,1,5.25,8.24,3,3,0,0,1,.06,2,2.92,2.92,0,0,1-1.31,1.63L58.26,47a20.83,20.83,0,0,1,0,7.87ZM46,50.34a9,9,0,0,0-2.63-5.8,8.78,8.78,0,0,0-5.87-2.69,10,10,0,0,0-7.12,2.5A10.22,10.22,0,0,0,28,51.47a8.77,8.77,0,0,0,8.37,8.37,10.69,10.69,0,0,0,7.24-2.37A10.3,10.3,0,0,0,46,50.34Zm27-5.62a1.3,1.3,0,0,1-.81.69,1.85,1.85,0,0,1-1.06.06,13.7,13.7,0,0,1-4-2.37,1.32,1.32,0,0,1-.56-.94,1.85,1.85,0,0,1,.19-1.06l1-1.75a12.27,12.27,0,0,1-2-3.37h-2a1.57,1.57,0,0,1-1.06-.38,1.25,1.25,0,0,1-.44-1A12.34,12.34,0,0,1,62.13,30a1.75,1.75,0,0,1,.57-.87,1.57,1.57,0,0,1,1.06-.38h2a14.34,14.34,0,0,1,2-3.5l-1-1.75a1.85,1.85,0,0,1-.19-1.06,1.34,1.34,0,0,1,.56-.94,16,16,0,0,1,4-2.25,1.39,1.39,0,0,1,1.06-.06,1.33,1.33,0,0,1,.81.69l1,1.87a10.76,10.76,0,0,1,4,0l1-1.87a1.39,1.39,0,0,1,.81-.69,1.41,1.41,0,0,1,1.07.06,11.72,11.72,0,0,1,4,2.25,1.36,1.36,0,0,1,.57.94,1.85,1.85,0,0,1-.19,1.06l-1,1.75a14.67,14.67,0,0,1,2,3.5h2a1.58,1.58,0,0,1,1.06.38,1.13,1.13,0,0,1,.44.87,10.9,10.9,0,0,1,0,4.62,1.25,1.25,0,0,1-.44,1,1.58,1.58,0,0,1-1.06.38h-2a12.52,12.52,0,0,1-2,3.37l1,1.75a1.85,1.85,0,0,1,.19,1.06,1.34,1.34,0,0,1-.57.94,13.52,13.52,0,0,1-4,2.37,1.88,1.88,0,0,1-1.07-.06,1.36,1.36,0,0,1-.81-.69L78,43a10.76,10.76,0,0,1-4,0Zm0,37.36a1.33,1.33,0,0,1-.81.69,1.94,1.94,0,0,1-1.06.06,13.7,13.7,0,0,1-4-2.37,1.34,1.34,0,0,1-.56-.94,1.83,1.83,0,0,1,.19-1.06l1-1.75a12.32,12.32,0,0,1-2-3.38h-2A1.56,1.56,0,0,1,62.7,73a1.25,1.25,0,0,1-.44-1,12.34,12.34,0,0,1-.13-4.62,1.73,1.73,0,0,1,.57-.88,1.56,1.56,0,0,1,1.06-.37h2a14.34,14.34,0,0,1,2-3.5l-1-1.75a1.85,1.85,0,0,1-.19-1.06,1.32,1.32,0,0,1,.56-.94,11.86,11.86,0,0,1,4-2.25,1.34,1.34,0,0,1,1.06-.06,1.27,1.27,0,0,1,.81.69L74,59a13.1,13.1,0,0,1,4,.13l1-1.87a1.33,1.33,0,0,1,.81-.69,1.37,1.37,0,0,1,1.07.06,11.72,11.72,0,0,1,4,2.25,1.34,1.34,0,0,1,.57.94,1.85,1.85,0,0,1-.19,1.06l-1,1.75a14.67,14.67,0,0,1,2,3.5h2a1.58,1.58,0,0,1,1.06.37,1.13,1.13,0,0,1,.44.88,10.9,10.9,0,0,1,0,4.62,1.25,1.25,0,0,1-.44,1,1.58,1.58,0,0,1-1.06.37h-2a12.58,12.58,0,0,1-2,3.38l1,1.75a1.83,1.83,0,0,1,.19,1.06,1.36,1.36,0,0,1-.57.94,13.52,13.52,0,0,1-4,2.37,2,2,0,0,1-1.07-.06,1.39,1.39,0,0,1-.81-.69l-1-1.75a10.76,10.76,0,0,1-4,0Zm4.31-45.42a4.15,4.15,0,0,0,3-3A5.15,5.15,0,0,0,79.25,29a4.73,4.73,0,0,0-4.56-1,4.36,4.36,0,0,0-3,3.06,4.89,4.89,0,0,0,1.06,4.56A4.86,4.86,0,0,0,77.31,36.66Zm0,37.3a4.32,4.32,0,0,0,3-3,5,5,0,0,0-1.06-4.62,4.73,4.73,0,0,0-4.56-1,4.36,4.36,0,0,0-3,3.06A4.89,4.89,0,0,0,72.75,73,4.75,4.75,0,0,0,77.31,74Z"/></svg>
