<svg id="Layer_1" data-name="Layer 1" xmlns="http://www.w3.org/2000/svg" viewBox="0 0 100 100"><title>Contact</title><path d="M85.94,16.3a2.9,2.9,0,0,1,2.12,1.21,3.9,3.9,0,0,1,.76,2.28,69.21,69.21,0,0,1-9.56,35.48A70.63,70.63,0,0,1,53.94,80.59a69.15,69.15,0,0,1-35.48,9.55,3.8,3.8,0,0,1-2.27-.76A2.89,2.89,0,0,1,15,87.26L11.34,71.49a3.34,3.34,0,0,1,.3-2.42,3.24,3.24,0,0,1,1.82-1.67l17-7.28a3.88,3.88,0,0,1,2.27-.23,3.06,3.06,0,0,1,2,1.29l7.43,9.1A53.35,53.35,0,0,0,58,59.21,55.74,55.74,0,0,0,69,43.44l-9.09-7.58A3.69,3.69,0,0,1,58.64,34a3.82,3.82,0,0,1,.15-2.35l7.28-17A3.39,3.39,0,0,1,67.74,13a3.47,3.47,0,0,1,2.43-.3Z"/></svg>
